<svg xmlns="http://www.w3.org/2000/svg">
  <symbol viewBox="0 0 48 48" id="logo">
    <g clip-path="url(#a)">
      <circle cx="24" cy="24" r="24" fill="beige"/>
      <path d="M35.685 29.602c7.171 17.437-7.983 11.306-11.485 7.804-2.874 3.502-19.172 10.125-11.976-7.804 3.023-5.485 5.634-7.22 11.976-7.22 6.343 0 8.578 1.735 11.485 7.22ZM12.876 18.154c1.369 3.76.287 7.607-2.415 8.59-2.703.984-6.004-1.267-7.373-5.028-1.369-3.76-.288-7.607 2.415-8.591 2.703-.984 6.004 1.268 7.373 5.029ZM22.557 11.547c.787 4.462-.871 8.484-3.704 8.983-2.833.5-5.767-2.712-6.554-7.174-.786-4.462.872-8.483 3.705-8.983s5.767 2.713 6.553 7.174ZM35.683 13.356c-.787 4.462-3.721 7.674-6.554 7.174-2.832-.5-4.491-4.521-3.704-8.983.786-4.461 3.72-7.673 6.553-7.174 2.833.5 4.491 4.521 3.705 8.983Z" fill="#654321"/>
      <ellipse cx="40.279" cy="19.935" rx="5.208" ry="7.247" transform="rotate(20 40.279 19.935)" fill="#654321"/>
    </g>
    <defs>
      <clipPath id="a">
        <path fill="#fff" d="M0 0h48v48H0z"/>
      </clipPath>
    </defs>
  </symbol>
  <symbol viewBox="0 0 23 23" id="visibility">
    <path xmlns="http://www.w3.org/2000/svg" d="M12 16c1.25 0 2.313-.438 3.188-1.313.874-.874 1.312-1.937 1.312-3.187 0-1.25-.438-2.313-1.313-3.188C14.313 7.439 13.25 7 12 7c-1.25 0-2.313.438-3.188 1.313C7.939 9.187 7.5 10.25 7.5 11.5c0 1.25.438 2.313 1.313 3.188C9.687 15.562 10.75 16 12 16Zm0-1.8c-.75 0-1.387-.262-1.912-.787A2.604 2.604 0 0 1 9.3 11.5c0-.75.262-1.387.787-1.912A2.604 2.604 0 0 1 12 8.8c.75 0 1.387.262 1.912.787.525.526.788 1.163.788 1.913s-.262 1.387-.787 1.912A2.604 2.604 0 0 1 12 14.2Zm0 4.8c-2.433 0-4.65-.68-6.65-2.038-2-1.358-3.45-3.179-4.35-5.462.9-2.283 2.35-4.104 4.35-5.463C7.35 4.68 9.567 4 12 4c2.433 0 4.65.68 6.65 2.037 2 1.359 3.45 3.18 4.35 5.463-.9 2.283-2.35 4.104-4.35 5.462C16.65 18.322 14.433 19 12 19Zm0-2a9.544 9.544 0 0 0 5.188-1.488A9.773 9.773 0 0 0 20.8 11.5a9.773 9.773 0 0 0-3.613-4.013A9.545 9.545 0 0 0 12 6a9.545 9.545 0 0 0-5.188 1.487A9.773 9.773 0 0 0 3.2 11.5a9.773 9.773 0 0 0 3.612 4.012A9.544 9.544 0 0 0 12 17Z" fill="current"/>
  </symbol>
  <symbol viewBox="0 0 23 23" id="unvisibility">
    <path d="m16.1 13.3-1.45-1.45c.15-.783-.075-1.517-.675-2.2-.6-.683-1.375-.95-2.325-.8L10.2 7.4c.283-.133.57-.233.863-.3.291-.067.604-.1.937-.1 1.25 0 2.313.438 3.188 1.313.874.874 1.312 1.937 1.312 3.187 0 .333-.033.646-.1.938-.067.291-.167.579-.3.862Zm3.2 3.15-1.45-1.4a10.951 10.951 0 0 0 1.688-1.588A8.898 8.898 0 0 0 20.8 11.5c-.833-1.683-2.03-3.02-3.588-4.013C15.654 6.497 13.917 6 12 6c-.483 0-.958.033-1.425.1a9.625 9.625 0 0 0-1.375.3L7.65 4.85A11.081 11.081 0 0 1 12 4c2.517 0 4.758.696 6.725 2.088C20.692 7.479 22.117 9.283 23 11.5a11.696 11.696 0 0 1-1.512 2.738A11.007 11.007 0 0 1 19.3 16.45Zm.5 6.15-4.2-4.15c-.583.183-1.17.32-1.762.413-.592.091-1.205.137-1.838.137-2.517 0-4.758-.696-6.725-2.087C3.308 15.52 1.883 13.717 1 11.5c.35-.883.792-1.704 1.325-2.463A11.514 11.514 0 0 1 4.15 7L1.4 4.2l1.4-1.4 18.4 18.4-1.4 1.4ZM5.55 8.4a10.74 10.74 0 0 0-1.325 1.425A9.016 9.016 0 0 0 3.2 11.5c.833 1.683 2.03 3.02 3.587 4.012C8.346 16.505 10.083 17 12 17c.333 0 .658-.02.975-.063.317-.041.642-.087.975-.137l-.9-.95c-.183.05-.358.088-.525.113A3.539 3.539 0 0 1 12 16c-1.25 0-2.313-.438-3.188-1.313C7.939 13.813 7.5 12.75 7.5 11.5c0-.183.013-.358.037-.525.026-.167.063-.342.113-.525L5.55 8.4Z" fill="current"/>
  </symbol>
  <symbol viewBox="0 0 48 48" id="home">
    <path d="M8.116 42V18L24.348 6 40.58 18v24H28.406V28H20.29v14H8.116Z" fill="current"/>
  </symbol>
  <symbol viewBox="0 0 48 48" id="account">
    <path d="M12.174 34.2a21.27 21.27 0 0 1 5.782-3.075A20.015 20.015 0 0 1 24.652 30c2.333 0 4.565.375 6.695 1.125A21.27 21.27 0 0 1 37.13 34.2a15.41 15.41 0 0 0 2.765-4.65c.66-1.733.989-3.583.989-5.55 0-4.433-1.581-8.208-4.743-11.325C32.979 9.558 29.149 8 24.651 8c-4.497 0-8.327 1.558-11.488 4.675C10 15.792 8.42 19.567 8.42 24c0 1.967.33 3.817.989 5.55a15.412 15.412 0 0 0 2.764 4.65ZM24.651 26c-1.995 0-3.678-.675-5.047-2.025-1.37-1.35-2.055-3.008-2.055-4.975 0-1.967.685-3.625 2.055-4.975 1.37-1.35 3.052-2.025 5.047-2.025 1.995 0 3.677.675 5.047 2.025 1.37 1.35 2.054 3.008 2.054 4.975 0 1.967-.684 3.625-2.054 4.975-1.37 1.35-3.052 2.025-5.047 2.025Zm0 18c-2.807 0-5.445-.525-7.913-1.575-2.469-1.05-4.616-2.475-6.442-4.275-1.826-1.8-3.272-3.917-4.337-6.35-1.066-2.433-1.598-5.033-1.598-7.8 0-2.767.532-5.367 1.598-7.8 1.065-2.433 2.51-4.55 4.337-6.35 1.826-1.8 3.973-3.225 6.442-4.275C19.207 4.525 21.845 4 24.652 4c2.807 0 5.444.525 7.913 1.575 2.468 1.05 4.616 2.475 6.442 4.275 1.826 1.8 3.272 3.917 4.337 6.35s1.598 5.033 1.598 7.8c0 2.767-.533 5.367-1.598 7.8s-2.511 4.55-4.337 6.35c-1.826 1.8-3.974 3.225-6.442 4.275C30.096 43.475 27.459 44 24.652 44Z" fill="current"/>
  </symbol>
  <symbol viewBox="0 0 43 42" id="search">
    <path d="M40.344 42 27.562 29.4c-1.015.8-2.181 1.433-3.5 1.9-1.32.467-2.723.7-4.21.7-3.686 0-6.806-1.258-9.36-3.775C7.94 25.708 6.664 22.633 6.664 19s1.277-6.708 3.83-9.225C13.046 7.258 16.166 6 19.852 6s6.805 1.258 9.358 3.775c2.553 2.517 3.83 5.592 3.83 9.225 0 1.467-.237 2.85-.71 4.15a11.869 11.869 0 0 1-1.928 3.45l12.783 12.6-2.84 2.8ZM19.852 28c2.536 0 4.692-.875 6.467-2.625 1.775-1.75 2.663-3.875 2.663-6.375s-.888-4.625-2.663-6.375S22.388 10 19.852 10c-2.537 0-4.693.875-6.468 2.625-1.775 1.75-2.663 3.875-2.663 6.375s.888 4.625 2.663 6.375S17.315 28 19.852 28Z" fill="current"/>
  </symbol>
  <symbol viewBox="0 0 48 42" id="favorite">
    <path d="m25.076 42-2.942-2.6c-3.415-3.033-6.24-5.65-8.471-7.85-2.232-2.2-4.007-4.175-5.326-5.925s-2.24-3.358-2.765-4.825a13.278 13.278 0 0 1-.786-4.5c0-3.133 1.065-5.75 3.196-7.85 2.13-2.1 4.785-3.15 7.964-3.15 1.758 0 3.432.367 5.021 1.1a12.012 12.012 0 0 1 4.11 3.1 12.012 12.012 0 0 1 4.108-3.1c1.59-.733 3.263-1.1 5.022-1.1 3.178 0 5.833 1.05 7.963 3.15 2.13 2.1 3.196 4.717 3.196 7.85 0 1.533-.262 3.033-.786 4.5s-1.446 3.075-2.765 4.825c-1.319 1.75-3.094 3.725-5.326 5.925-2.232 2.2-5.055 4.817-8.47 7.85L25.075 42Z" fill="current"/>
  </symbol>
  <symbol viewBox="0 0 48 46" id="add">
    <path d="M22.471 34h4.058v-8h8.116v-4H26.53v-8h-4.058v8h-8.116v4h8.116v8Zm2.03 10c-2.807 0-5.445-.525-7.914-1.575-2.468-1.05-4.616-2.475-6.442-4.275-1.826-1.8-3.271-3.917-4.337-6.35C4.743 29.367 4.21 26.767 4.21 24c0-2.767.533-5.367 1.598-7.8 1.066-2.433 2.511-4.55 4.337-6.35 1.826-1.8 3.974-3.225 6.442-4.275C19.056 4.525 21.694 4 24.5 4c2.807 0 5.445.525 7.913 1.575 2.47 1.05 4.617 2.475 6.443 4.275 1.826 1.8 3.271 3.917 4.337 6.35 1.065 2.433 1.597 5.033 1.597 7.8 0 2.767-.532 5.367-1.597 7.8-1.066 2.433-2.511 4.55-4.337 6.35-1.827 1.8-3.974 3.225-6.443 4.275C29.945 43.475 27.307 44 24.5 44Z" fill="current"/>
  </symbol>
  <symbol viewBox="0 0 30 30" id="close">
    <path d="m8.533 25.333-1.866-1.866L14.133 16 6.667 8.533l1.866-1.866L16 14.133l7.466-7.466 1.867 1.866L17.867 16l7.466 7.467-1.866 1.866L16 17.867l-7.467 7.466Z" fill="current"/>
  </symbol>
  <symbol viewBox="0 0 92 84" id="upload">
    <path d="M17.042 85.333V62.75l16.37 16.417c2.992-3 5.665-6.237 8.02-9.709 2.354-3.472 3.532-7.32 3.532-11.541 0-3.111-.61-6.098-1.829-8.959a23.764 23.764 0 0 0-5.069-7.541L28.676 32H40.31l13.296-13.333L60.42 25.5c2.216 2.222 3.933 4.736 5.152 7.542C66.791 35.847 67.4 38.833 67.4 42s-.61 6.153-1.828 8.958c-1.219 2.806-2.936 5.32-5.152 7.542l-6.814 6.833v20H17.042Zm16.37-15.583L16.129 52.417a6.376 6.376 0 0 1-1.413-2.167 6.913 6.913 0 0 1-.498-2.583A6.598 6.598 0 0 1 16.128 43l6.98-7.083 10.305 10.25a16.844 16.844 0 0 1 3.615 5.375 16.184 16.184 0 0 1 1.288 6.375c0 2.222-.416 4.347-1.247 6.375-.83 2.027-2.05 3.847-3.656 5.458Z" fill="current"/>
    <path d="M73.716 21a1.918 1.918 0 0 1-1.408-.587A1.929 1.929 0 0 1 71.722 19V5c0-.55.195-1.02.586-1.413.39-.391.86-.587 1.408-.587h8.975v2h-8.975v14h13.96v-9h1.995v9c0 .55-.195 1.02-.586 1.413-.39.391-.86.587-1.408.587h-13.96ZM85.682 9V7h-1.994V5h1.994V3h1.995v2h1.994v2h-1.994v2h-1.995Zm-10.969 8H86.68l-3.74-5-2.992 4-2.243-3-2.992 4Z" fill="current"/>
  </symbol>
</svg>